<svg width="194" height="194" viewBox="0 0 194 194" fill="none" xmlns="http://www.w3.org/2000/svg">
<path fill-rule="evenodd" clip-rule="evenodd" d="M24.25 189.958V80.8334C24.25 71.9054 31.4886 64.6668 40.4167 64.6668V48.5001C40.4167 44.0381 44.038 40.4168 48.5 40.4168H56.5833V8.08342C56.5833 5.85241 58.39 4.04175 60.625 4.04175C62.86 4.04175 64.6667 5.85241 64.6667 8.08342V40.4168H72.75C77.212 40.4168 80.8333 44.0381 80.8333 48.5001V64.6668C89.7614 64.6668 97 71.9054 97 80.8334V113.167H125.292V88.9168H141.458V76.7918H165.708V88.9168H169.75V189.958H24.25ZM72.75 52.5418C72.75 50.3108 70.9434 48.5001 68.7083 48.5001H52.5417C50.3066 48.5001 48.5 50.3108 48.5 52.5418V64.6668H72.75V52.5418ZM88.9167 80.8334C88.9167 76.3714 85.2953 72.7501 80.8333 72.7501H40.4167C35.9547 72.7501 32.3333 76.3714 32.3333 80.8334V181.875H88.9167V80.8334ZM125.292 121.25H97V181.875H125.292V121.25ZM161.667 97.0001H133.375V181.875H161.667V97.0001ZM145.5 109.125H149.542C151.777 109.125 153.583 110.932 153.583 113.167V117.208C153.583 119.443 151.777 121.25 149.542 121.25H145.5C143.265 121.25 141.458 119.443 141.458 117.208V113.167C141.458 110.932 143.265 109.125 145.5 109.125ZM145.5 133.375H149.542C151.777 133.375 153.583 135.182 153.583 137.417V141.458C153.583 143.693 151.777 145.5 149.542 145.5H145.5C143.265 145.5 141.458 143.693 141.458 141.458V137.417C141.458 135.182 143.265 133.375 145.5 133.375ZM145.5 157.625H149.542C151.777 157.625 153.583 159.432 153.583 161.667V165.708C153.583 167.943 151.777 169.75 149.542 169.75H145.5C143.265 169.75 141.458 167.943 141.458 165.708V161.667C141.458 159.432 143.265 157.625 145.5 157.625ZM109.125 133.375H113.167C115.402 133.375 117.208 135.182 117.208 137.417V141.458C117.208 143.693 115.402 145.5 113.167 145.5H109.125C106.89 145.5 105.083 143.693 105.083 141.458V137.417C105.083 135.182 106.89 133.375 109.125 133.375ZM109.125 157.625H113.167C115.402 157.625 117.208 159.432 117.208 161.667V165.708C117.208 167.943 115.402 169.75 113.167 169.75H109.125C106.89 169.75 105.083 167.943 105.083 165.708V161.667C105.083 159.432 106.89 157.625 109.125 157.625ZM72.75 169.75H68.7083C66.4733 169.75 64.6667 167.943 64.6667 165.708V161.667C64.6667 159.436 66.4733 157.625 68.7083 157.625H72.75C74.985 157.625 76.7917 159.436 76.7917 161.667V165.708C76.7917 167.943 74.985 169.75 72.75 169.75ZM72.75 145.5H68.7083C66.4733 145.5 64.6667 143.693 64.6667 141.458V137.417C64.6667 135.186 66.4733 133.375 68.7083 133.375H72.75C74.985 133.375 76.7917 135.186 76.7917 137.417V141.458C76.7917 143.693 74.985 145.5 72.75 145.5ZM72.75 121.25H68.7083C66.4733 121.25 64.6667 119.443 64.6667 117.208V113.167C64.6667 110.936 66.4733 109.125 68.7083 109.125H72.75C74.985 109.125 76.7917 110.936 76.7917 113.167V117.208C76.7917 119.443 74.985 121.25 72.75 121.25ZM72.75 97.0001H68.7083C66.4733 97.0001 64.6667 95.1935 64.6667 92.9584V88.9168C64.6667 86.6858 66.4733 84.8751 68.7083 84.8751H72.75C74.985 84.8751 76.7917 86.6858 76.7917 88.9168V92.9584C76.7917 95.1935 74.985 97.0001 72.75 97.0001ZM52.5417 169.75H48.5C46.265 169.75 44.4583 167.943 44.4583 165.708V161.667C44.4583 159.432 46.265 157.625 48.5 157.625H52.5417C54.7767 157.625 56.5833 159.432 56.5833 161.667V165.708C56.5833 167.943 54.7767 169.75 52.5417 169.75ZM52.5417 145.5H48.5C46.265 145.5 44.4583 143.693 44.4583 141.458V137.417C44.4583 135.182 46.265 133.375 48.5 133.375H52.5417C54.7767 133.375 56.5833 135.182 56.5833 137.417V141.458C56.5833 143.693 54.7767 145.5 52.5417 145.5ZM52.5417 121.25H48.5C46.265 121.25 44.4583 119.443 44.4583 117.208V113.167C44.4583 110.936 46.265 109.125 48.5 109.125H52.5417C54.7767 109.125 56.5833 110.936 56.5833 113.167V117.208C56.5833 119.443 54.7767 121.25 52.5417 121.25ZM52.5417 97.0001H48.5C46.265 97.0001 44.4583 95.1935 44.4583 92.9584V88.9168C44.4583 86.6858 46.265 84.8751 48.5 84.8751H52.5417C54.7767 84.8751 56.5833 86.6858 56.5833 88.9168V92.9584C56.5833 95.1935 54.7767 97.0001 52.5417 97.0001Z" fill="white"/>
</svg>
