<?xml version="1.0" encoding="UTF-8"?>
<svg id="_Слой_1" data-name="Слой 1" xmlns="http://www.w3.org/2000/svg" viewBox="0 0 100.11 128.02">
  <defs>
    <style>
      .cls-1 {
        fill: #971717;
        stroke-width: 0px;
      }
    </style>
  </defs>
  <circle class="cls-1" cx="50.05" cy="49.66" r="20.55"/>
  <path class="cls-1" d="m98.39,47.84c2.79-3.61,2.12-8.8-1.5-11.59-.06-.05-.13-.1-.19-.14l-3.5-2.54c-2.35-1.7-3.63-4.51-3.38-7.4l.37-4.31c.42-4.54-2.93-8.56-7.47-8.98-.1,0-.19-.02-.29-.02l-4.32-.24c-2.89-.16-5.49-1.83-6.84-4.4l-2-3.83c-2.14-4.03-7.14-5.56-11.17-3.42-.07.04-.15.08-.22.12l-3.76,2.13c-2.52,1.43-5.62,1.43-8.14,0l-3.76-2.13c-3.97-2.25-9.01-.85-11.26,3.12-.04.07-.08.15-.12.22l-2,3.83c-1.35,2.57-3.95,4.24-6.84,4.4l-4.32.24c-4.55.26-8.04,4.16-7.78,8.71,0,.1.01.19.02.29l.37,4.31c.25,2.89-1.03,5.7-3.38,7.4l-3.5,2.54c-3.69,2.68-4.51,7.84-1.83,11.54.05.07.1.13.14.19l2.64,3.42c1.77,2.29,2.21,5.35,1.16,8.05l-1.57,4c-1.66,4.25.45,9.04,4.7,10.7.07.03.15.06.22.08l4.07,1.45c2.73.97,4.76,3.31,5.33,6.15l.78,3.8-10.39,33.77,16.48-5.16,10.26,13.88,9.37-30.63c2.88,2.39,7.02,2.55,10.07.37l9.86,30.26,10.26-13.88,16.48,5.16-10.64-32.64c.07-.23.13-.45.18-.69l.85-4.24c.57-2.84,2.6-5.18,5.33-6.15l4.07-1.45c4.3-1.53,6.54-6.26,5-10.56-.03-.08-.05-.15-.08-.22l-1.57-4c-1.05-2.7-.61-5.76,1.16-8.05l2.65-3.46Zm-76.89,1.82c0-15.77,12.78-28.55,28.55-28.55s28.55,12.78,28.55,28.55-12.78,28.55-28.55,28.55c-15.76-.02-28.53-12.79-28.55-28.55Z"/>
</svg>