<?xml version="1.0" encoding="UTF-8"?>
<svg id="_Слой_1" data-name="Слой 1" xmlns="http://www.w3.org/2000/svg" viewBox="0 0 512 384">
  <defs>
    <style>
      .cls-1 {
        fill: #971717;
        stroke-width: 0px;
      }
    </style>
  </defs>
  <path class="cls-1" d="m256,288c-16.53,0-33.06-5.42-47.16-16.41L0,109.2v226.8c0,26.5,21.49,48,48,48h416c26.51,0,48-21.49,48-48V109.2l-208.8,162.5c-14.1,10.9-30.7,16.3-47.2,16.3ZM16.29,81.3l212.2,165.1c16.19,12.6,38.87,12.6,55.06,0l212.2-165.1c9.35-8,16.25-20.3,16.25-33.3,0-26.51-21.5-48-48-48H48C21.49,0,0,21.49,0,48c0,13,6.01,25.3,16.29,33.3Z"/>
</svg>