<svg width="237" height="112" viewBox="0 0 237 112" fill="none" xmlns="http://www.w3.org/2000/svg">
<path d="M220.376 21.582C219.403 20.1914 217.804 19.357 216.135 19.357H183.803V5.58984C183.803 2.73906 181.439 0.375 178.588 0.375H61.4277C58.577 0.375 56.2129 2.73906 56.2129 5.58984V89.8617C56.2129 92.7125 58.577 95.0766 61.4277 95.0766H76.1684C78.8801 104.533 87.641 111.555 97.9316 111.555C108.222 111.555 116.983 104.602 119.695 95.0766H177.475C180.187 104.533 188.948 111.555 199.239 111.555C209.529 111.555 218.29 104.602 221.002 95.0766H231.779C234.63 95.0766 236.994 92.7125 236.994 89.8617V46.9609C236.994 45.8484 236.646 44.8055 236.021 43.9711L220.376 21.582ZM226.634 48.4906H203.271V29.8562H213.493L226.634 48.4906ZM66.6426 10.8742H173.373V84.7164H120.182C118.165 74.2172 108.987 66.2906 97.9316 66.2906C86.8762 66.2906 77.6285 74.2172 75.6816 84.7164H66.6426V10.8742ZM97.9316 101.126C91.1871 101.126 85.6941 95.6328 85.6941 88.8883C85.6941 82.1437 91.1871 76.6508 97.9316 76.6508C104.676 76.6508 110.169 82.1437 110.169 88.8883C110.169 95.6328 104.676 101.126 97.9316 101.126ZM199.308 101.126C192.564 101.126 187.071 95.6328 187.071 88.8883C187.071 82.1437 192.564 76.6508 199.308 76.6508C206.053 76.6508 211.546 82.1437 211.546 88.8883C211.546 95.6328 206.053 101.126 199.308 101.126ZM221.558 84.7164C219.542 74.2172 210.364 66.2906 199.308 66.2906C193.329 66.2906 187.836 68.6547 183.803 72.4789V29.8562H192.772V53.7055C192.772 56.5562 195.136 58.9203 197.987 58.9203H226.704V84.7164H221.558Z" fill="white"/>
<path d="M6.08105 10.874H43.2803C46.1311 10.874 48.4951 8.50996 48.4951 5.65918C48.4951 2.8084 46.1311 0.444336 43.2803 0.444336H6.08105C3.23027 0.444336 0.866211 2.8084 0.866211 5.65918C0.866211 8.50996 3.23027 10.874 6.08105 10.874Z" fill="white"/>
<path d="M43.2802 19.4265H14.6333C11.7825 19.4265 9.41846 21.7906 9.41846 24.6414C9.41846 27.4921 11.7825 29.8562 14.6333 29.8562H43.2802C46.131 29.8562 48.495 27.4921 48.495 24.6414C48.495 21.7906 46.2005 19.4265 43.2802 19.4265Z" fill="white"/>
<path d="M43.2803 38.4087H25.2021C22.3514 38.4087 19.9873 40.7728 19.9873 43.6235C19.9873 46.4743 22.3514 48.8384 25.2021 48.8384H43.2803C46.1311 48.8384 48.4951 46.4743 48.4951 43.6235C48.4951 40.7728 46.2006 38.4087 43.2803 38.4087Z" fill="white"/>
<path d="M43.2803 57.3906H37.0225C34.1717 57.3906 31.8076 59.7547 31.8076 62.6055C31.8076 65.4563 34.1717 67.8203 37.0225 67.8203H43.2803C46.1311 67.8203 48.4951 65.4563 48.4951 62.6055C48.4951 59.7547 46.2006 57.3906 43.2803 57.3906Z" fill="white"/>
</svg>
