<svg width="23" height="23" viewBox="0 0 23 23" fill="none" xmlns="http://www.w3.org/2000/svg">
<path fill-rule="evenodd" clip-rule="evenodd" d="M19.0187 5.36134C19.0187 6.12357 18.4007 6.74134 17.6387 6.74134C16.8766 6.74134 16.2587 6.12357 16.2587 5.36134C16.2587 4.5991 16.8766 3.98134 17.6387 3.98134C18.4009 3.98134 19.0187 4.5991 19.0187 5.36134ZM11.5 15.3333C9.38292 15.3333 7.66673 13.6171 7.66673 11.5C7.66673 9.38292 9.38292 7.66673 11.5 7.66673C13.6171 7.66673 15.3333 9.38292 15.3333 11.5C15.3333 13.6171 13.6171 15.3333 11.5 15.3333ZM11.5 5.59457C8.23849 5.59457 5.59457 8.23849 5.59457 11.5C5.59457 14.7615 8.23849 17.4054 11.5 17.4054C14.7615 17.4054 17.4054 14.7615 17.4054 11.5C17.4054 8.23849 14.7615 5.59457 11.5 5.59457ZM11.5 2.07216C14.5707 2.07216 14.9344 2.08384 16.1469 2.13918C17.2681 2.19039 17.8771 2.37762 18.2823 2.53521C18.819 2.74383 19.2021 2.99305 19.6046 3.39555C20.0071 3.79787 20.2564 4.18097 20.465 4.71788C20.6224 5.12307 20.8098 5.73203 20.861 6.85328C20.9163 8.06599 20.928 8.42968 20.928 11.5004C20.928 14.571 20.9163 14.9347 20.861 16.1473C20.8098 17.2685 20.6226 17.8775 20.465 18.2827C20.2564 18.8194 20.0071 19.2025 19.6046 19.605C19.2023 20.0075 18.8192 20.2567 18.2823 20.4653C17.8771 20.6227 17.2681 20.8101 16.1469 20.8614C14.9344 20.9167 14.5707 20.9284 11.5 20.9284C8.42914 20.9284 8.06545 20.9167 6.85292 20.8614C5.73167 20.8101 5.12271 20.6229 4.71752 20.4653C4.18079 20.2567 3.7977 20.0075 3.3952 19.605C2.99288 19.2027 2.74347 18.8196 2.53485 18.2827C2.37745 17.8775 2.19003 17.2685 2.13882 16.1473C2.08348 14.9345 2.0718 14.5709 2.0718 11.5004C2.0718 8.42968 2.08348 8.06599 2.13882 6.85328C2.19003 5.73203 2.37727 5.12307 2.53485 4.71788C2.74347 4.18115 2.9927 3.79805 3.3952 3.39555C3.79752 2.99305 4.18061 2.74383 4.71752 2.53521C5.12271 2.3778 5.73167 2.19039 6.85292 2.13918C8.06563 2.08384 8.42932 2.07216 11.5 2.07216ZM11.5 0C8.37685 0 7.98513 0.0132969 6.75859 0.0691797C5.53455 0.125062 4.69847 0.319484 3.96714 0.60375C3.21084 0.897539 2.56953 1.29087 1.9302 1.9302C1.29087 2.56953 0.897539 3.21084 0.60375 3.96714C0.319484 4.69865 0.125062 5.53455 0.0691797 6.75859C0.0132969 7.98513 0 8.37685 0 11.5C0 14.6231 0.0132969 15.0149 0.0691797 16.2414C0.125062 17.4654 0.319484 18.3014 0.60375 19.0329C0.897539 19.7892 1.29087 20.4305 1.9302 21.0698C2.56953 21.7091 3.21084 22.1023 3.96714 22.3962C4.69865 22.6805 5.53455 22.8749 6.75859 22.9308C7.98513 22.9867 8.37685 23 11.5 23C14.6231 23 15.0149 22.9867 16.2414 22.9308C17.4654 22.8749 18.3014 22.6805 19.0329 22.3962C19.7892 22.1023 20.4305 21.7091 21.0698 21.0698C21.7091 20.4305 22.1023 19.7892 22.3962 19.0329C22.6805 18.3014 22.8749 17.4654 22.9308 16.2414C22.9867 15.0149 23 14.6231 23 11.5C23 8.37685 22.9867 7.98513 22.9308 6.75859C22.8749 5.53455 22.6805 4.69865 22.3962 3.96714C22.1023 3.21084 21.7091 2.56953 21.0698 1.9302C20.4305 1.29087 19.7892 0.897719 19.0329 0.60375C18.3014 0.319484 17.4654 0.125062 16.2414 0.0691797C15.0149 0.0132969 14.6231 0 11.5 0Z" fill="white"/>
</svg>
