<svg width="198" height="198" viewBox="0 0 198 198" fill="none" xmlns="http://www.w3.org/2000/svg">
<path d="M136.125 77.5499L61.875 34.7324" stroke="white" stroke-width="2" stroke-linecap="round" stroke-linejoin="round"/>
<path d="M173.25 132V65.9999C173.247 63.1064 172.483 60.2646 171.035 57.7595C169.587 55.2544 167.506 53.1742 165 51.7274L107.25 18.7274C104.742 17.2792 101.896 16.5168 99 16.5168C96.1036 16.5168 93.2583 17.2792 90.75 18.7274L33 51.7274C30.4942 53.1742 28.4128 55.2544 26.9648 57.7595C25.5168 60.2646 24.753 63.1064 24.75 65.9999V132C24.753 134.893 25.5168 137.735 26.9648 140.24C28.4128 142.745 30.4942 144.826 33 146.272L90.75 179.272C93.2583 180.721 96.1036 181.483 99 181.483C101.896 181.483 104.742 180.721 107.25 179.272L165 146.272C167.506 144.826 169.587 142.745 171.035 140.24C172.483 137.735 173.247 134.893 173.25 132Z" stroke="white" stroke-width="2" stroke-linecap="round" stroke-linejoin="round"/>
<path d="M26.9775 57.4199L99 99.0824L171.023 57.4199" stroke="white" stroke-width="2" stroke-linecap="round" stroke-linejoin="round"/>
<path d="M99 182.16V99" stroke="white" stroke-width="2" stroke-linecap="round" stroke-linejoin="round"/>
</svg>
