<svg width="841" height="138" viewBox="0 0 841 138" fill="none" xmlns="http://www.w3.org/2000/svg">
<g filter="url(#filter0_d_124_389)">
<path d="M46.72 91.08H93.44V109H23.68V19.4H46.72V91.08ZM118.43 109H93.47L127.39 19.4H152.99L186.91 109H161.95L156.19 93H124.19L118.43 109ZM129.95 76.36H150.43L140.19 46.28L129.95 76.36ZM243.225 19.4C252.868 19.4 260.164 21.9173 265.113 26.952C270.148 31.9013 272.665 39.1973 272.665 48.84V79.56C272.665 89.2027 270.148 96.5413 265.113 101.576C260.164 106.525 252.868 109 243.225 109H193.305V19.4H243.225ZM249.625 48.84C249.625 41.16 245.785 37.32 238.105 37.32H216.345V91.08H238.105C245.785 91.08 249.625 87.24 249.625 79.56V48.84ZM297.555 109H272.595L306.515 19.4H332.115L366.035 109H341.075L335.315 93H303.315L297.555 109ZM309.075 76.36H329.555L319.315 46.28L309.075 76.36ZM448.565 82.12L470.325 19.4H495.285L461.365 109H435.765L401.845 19.4H426.805L448.565 82.12ZM572.72 109H501.68V19.4H572.72V37.32H524.72V54.6H562.48V72.52H524.72V91.08H572.72V109ZM580.242 90.44C603.623 91.72 619.453 92.36 627.73 92.36C629.693 92.36 631.229 91.8053 632.338 90.696C633.533 89.5013 634.13 87.9227 634.13 85.96V74.44H604.69C595.73 74.44 589.202 72.4347 585.106 68.424C581.095 64.328 579.09 57.8 579.09 48.84V45C579.09 36.04 581.095 29.5547 585.106 25.544C589.202 21.448 595.73 19.4 604.69 19.4H649.618V37.32H609.81C604.69 37.32 602.13 39.88 602.13 45V47.56C602.13 52.68 604.69 55.24 609.81 55.24H632.85C641.213 55.24 647.357 57.2027 651.282 61.128C655.207 65.0533 657.17 71.1973 657.17 79.56V85.96C657.17 94.3227 655.207 100.467 651.282 104.392C647.357 108.317 641.213 110.28 632.85 110.28C628.498 110.28 623.89 110.195 619.026 110.024L607.25 109.512C598.546 109.085 589.543 108.488 580.242 107.72V90.44ZM705.825 109H682.785V37.32H655.905V19.4H732.705V37.32H705.825V109ZM748.68 109H723.72L757.64 19.4H783.24L817.16 109H792.2L786.44 93H754.44L748.68 109ZM760.2 76.36H780.68L770.44 46.28L760.2 76.36Z" fill="white"/>
</g>
<defs>
<filter id="filter0_d_124_389" x="0.780054" y="0.499994" width="839.28" height="136.68" filterUnits="userSpaceOnUse" color-interpolation-filters="sRGB">
<feFlood flood-opacity="0" result="BackgroundImageFix"/>
<feColorMatrix in="SourceAlpha" type="matrix" values="0 0 0 0 0 0 0 0 0 0 0 0 0 0 0 0 0 0 127 0" result="hardAlpha"/>
<feOffset dy="4"/>
<feGaussianBlur stdDeviation="11.45"/>
<feComposite in2="hardAlpha" operator="out"/>
<feColorMatrix type="matrix" values="0 0 0 0 1 0 0 0 0 1 0 0 0 0 1 0 0 0 0.5 0"/>
<feBlend mode="normal" in2="BackgroundImageFix" result="effect1_dropShadow_124_389"/>
<feBlend mode="normal" in="SourceGraphic" in2="effect1_dropShadow_124_389" result="shape"/>
</filter>
</defs>
</svg>
