<svg width="224" height="230" viewBox="0 0 224 230" fill="none" xmlns="http://www.w3.org/2000/svg">
<g filter="url(#filter0_d_208_1418)">
<path d="M23.6172 87.0508C23.6172 87.1035 23.6172 87.1035 23.6172 87.0508C23.7227 97.2812 29.5234 106.141 38.0664 110.518V202.275C38.0664 204.438 39.8594 206.23 42.0215 206.23H127.504H159.355H181.979C184.141 206.23 185.934 204.438 185.934 202.275V110.518C194.424 106.088 200.277 97.2285 200.383 87.0508C200.383 86.998 200.383 86.8926 200.383 86.8398V86.7871C200.383 86.6816 200.383 86.6289 200.383 86.5234C200.383 86.4707 200.383 86.418 200.383 86.3652C200.383 86.3125 200.383 86.207 200.33 86.1543C200.33 86.1016 200.33 86.0488 200.277 85.9434C200.277 85.8906 200.225 85.8379 200.225 85.7852C200.225 85.7324 200.172 85.6269 200.172 85.5742C200.172 85.5215 200.119 85.4687 200.119 85.416C200.066 85.3105 200.066 85.2578 200.014 85.2051V85.1523L183.191 49.5039V35.9512C183.191 29.2012 177.707 23.6641 170.904 23.6641H52.9375C46.1875 23.6641 40.6504 29.1484 40.6504 35.9512V49.8203L23.9863 85.1523V85.2051C23.9336 85.2578 23.9336 85.3633 23.8809 85.416C23.8809 85.4687 23.8281 85.5215 23.8281 85.5742C23.8281 85.6269 23.7754 85.7324 23.7754 85.7852C23.7754 85.8379 23.7227 85.8906 23.7227 85.9434C23.7227 85.9961 23.7227 86.0488 23.6699 86.1543C23.6699 86.207 23.6699 86.3125 23.6172 86.3652C23.6172 86.418 23.6172 86.4707 23.6172 86.5234C23.6172 86.6289 23.6172 86.6816 23.6172 86.7871V86.8398C23.6172 86.9453 23.6172 86.998 23.6172 87.0508ZM47.2949 54.3555H76.5625L69.9707 82.8848H33.7949L47.2949 54.3555ZM139.316 54.3555L145.908 82.8848H115.955V54.3555H139.316ZM190.152 82.8848H153.977L147.438 54.3555H176.705L190.152 82.8848ZM148.914 96.0684C145.592 101.922 139.316 105.666 132.514 105.666C125.553 105.666 119.172 101.764 115.902 95.6465V90.8477H147.648L148.914 96.0684ZM76.2988 90.7949H108.045V95.5938C104.828 101.711 98.3945 105.613 91.4336 105.613C84.6309 105.613 78.3555 101.869 75.0332 96.0156L76.2988 90.7949ZM108.045 82.8848H78.0918L84.6836 54.3555H108.045V82.8848ZM31.9492 90.7949H68.125L67.123 95.2246C63.959 101.553 57.4199 105.666 50.3008 105.666C41.3359 105.666 33.7949 99.2852 31.9492 90.7949ZM131.459 198.373V159.93C131.459 159.455 131.828 159.086 132.303 159.086H154.609C155.084 159.086 155.453 159.455 155.453 159.93V198.373H131.459ZM178.023 198.373H163.311V159.93C163.311 155.131 159.408 151.176 154.557 151.176H132.25C127.451 151.176 123.496 155.078 123.496 159.93V198.373H45.9766V113.207C47.4004 113.418 48.8242 113.576 50.3535 113.576C58.3691 113.576 65.9102 109.937 70.9199 103.873C75.9297 109.885 83.4707 113.576 91.4863 113.576C99.502 113.576 107.043 109.937 112.053 103.873C117.063 109.885 124.604 113.576 132.619 113.576C140.635 113.576 148.176 109.937 153.186 103.873C158.195 109.885 165.736 113.576 173.752 113.576C175.229 113.576 176.705 113.471 178.129 113.207V198.373H178.023ZM173.646 105.666C166.527 105.666 159.988 101.605 156.824 95.2246L155.822 90.7949H191.998C190.205 99.2852 182.664 105.666 173.646 105.666ZM48.6133 36.0039C48.6133 33.6309 50.5645 31.627 52.9902 31.627H170.957C173.33 31.627 175.334 33.5781 175.334 36.0039V46.4453H48.6133V36.0039Z" fill="white"/>
<path d="M102.402 123.754H59.5293C57.3672 123.754 55.5742 125.547 55.5742 127.709V161.986C55.5742 164.148 57.3672 165.941 59.5293 165.941H102.402C104.564 165.941 106.357 164.148 106.357 161.986V127.709C106.357 125.494 104.564 123.754 102.402 123.754ZM98.4473 140.893H84.8945V131.664H98.4473V140.893ZM76.9844 131.664V140.893H63.4844V131.664H76.9844ZM63.4844 148.803H77.0371V158.031H63.4844V148.803ZM84.8945 158.031V148.803H98.4473V158.031H84.8945Z" fill="white"/>
</g>
<defs>
<filter id="filter0_d_208_1418" x="0.617188" y="0.664062" width="222.766" height="228.566" filterUnits="userSpaceOnUse" color-interpolation-filters="sRGB">
<feFlood flood-opacity="0" result="BackgroundImageFix"/>
<feColorMatrix in="SourceAlpha" type="matrix" values="0 0 0 0 0 0 0 0 0 0 0 0 0 0 0 0 0 0 127 0" result="hardAlpha"/>
<feOffset/>
<feGaussianBlur stdDeviation="11.5"/>
<feComposite in2="hardAlpha" operator="out"/>
<feColorMatrix type="matrix" values="0 0 0 0 0 0 0 0 0 0 0 0 0 0 0 0 0 0 1 0"/>
<feBlend mode="normal" in2="BackgroundImageFix" result="effect1_dropShadow_208_1418"/>
<feBlend mode="normal" in="SourceGraphic" in2="effect1_dropShadow_208_1418" result="shape"/>
</filter>
</defs>
</svg>
