<svg width="55" height="54" viewBox="0 0 55 54" fill="none" xmlns="http://www.w3.org/2000/svg">
<g clip-path="url(#clip0_208_1116)">
<path d="M27.3325 54C42.2442 54 54.3325 41.9117 54.3325 27C54.3325 12.0883 42.2442 0 27.3325 0C12.4208 0 0.33252 12.0883 0.33252 27C0.33252 41.9117 12.4208 54 27.3325 54Z" fill="url(#paint0_linear_208_1116)"/>
<path fill-rule="evenodd" clip-rule="evenodd" d="M12.5543 26.7152C20.4254 23.2854 25.6736 21.0252 28.2997 19.9325C35.7986 16.8138 37.3563 16.2717 38.372 16.2538C38.5956 16.2506 39.0945 16.3055 39.4182 16.5681C39.6914 16.7896 39.7663 17.0891 39.8022 17.299C39.838 17.5099 39.8834 17.9877 39.8475 18.3621C39.4414 22.6315 37.6833 32.9917 36.7889 37.7736C36.4103 39.7976 35.6646 40.4757 34.9432 40.5422C33.3759 40.6867 32.1852 39.5054 30.6664 38.5098C28.2902 36.9531 26.9476 35.9828 24.641 34.463C21.9748 32.7059 23.7034 31.7408 25.2222 30.163C25.6198 29.7496 32.528 23.4657 32.6619 22.8962C32.6788 22.8245 32.6946 22.5587 32.5364 22.4184C32.3782 22.2782 32.1451 22.3267 31.9774 22.3646C31.7391 22.4184 27.9432 24.9275 20.5889 29.892C19.511 30.6323 18.5344 30.992 17.66 30.9741C16.6961 30.953 14.8419 30.4288 13.4634 29.9805C11.7728 29.4311 10.4291 29.14 10.5462 28.2066C10.6063 27.7204 11.276 27.2236 12.5543 26.7152Z" fill="white"/>
</g>
<defs>
<linearGradient id="paint0_linear_208_1116" x1="27.3325" y1="0.405" x2="27.3325" y2="54" gradientUnits="userSpaceOnUse">
<stop stop-color="#2AABEE"/>
<stop offset="1" stop-color="#229ED9"/>
</linearGradient>
<clipPath id="clip0_208_1116">
<rect width="54" height="54" fill="white" transform="translate(0.33252)"/>
</clipPath>
</defs>
</svg>
