<svg width="32" height="20" viewBox="0 0 32 20" fill="none" xmlns="http://www.w3.org/2000/svg">
<path d="M1.0805 0C2.19946 0 3.90454 0 4.86365 0C5.3432 0 5.71619 0.319703 5.87604 0.745973C6.35559 2.13135 7.42127 5.16853 8.6468 7.24659C10.2986 9.96406 11.3643 10.9765 12.057 10.8699C12.7496 10.71 12.5365 8.89839 12.5365 7.45973C12.5365 6.02107 12.6964 3.57001 12.0037 2.45105L10.938 0.905824C10.6716 0.532838 10.938 0.053284 11.3643 0.053284H17.4386C18.0247 0.053284 18.5043 0.532838 18.5043 1.11896V8.84511C18.5043 8.84511 18.7707 10.2305 20.2627 8.79182C21.7546 7.35316 23.3531 4.68897 24.6852 1.9715L25.218 0.692689C25.3779 0.319703 25.7509 0.053284 26.1772 0.053284H30.1202C30.8661 0.053284 31.399 0.799257 31.1325 1.49195L30.7063 2.6109C30.7063 2.6109 29.2676 5.48823 27.7757 7.51301C26.2837 9.59108 25.964 10.0706 26.1772 10.6035C26.3903 11.1363 30.2267 14.7063 31.1858 16.4114C31.4522 16.891 31.6654 17.3172 31.8785 17.6902C32.2515 18.3829 31.7187 19.2887 30.9194 19.2887H26.4436C26.0706 19.2887 25.6976 19.0756 25.5378 18.7559L25.1115 18.0632C25.1115 18.0632 22.394 14.8662 20.7422 13.8538C19.0371 12.8947 19.0904 14.2801 19.0904 14.2801V17.1041C19.0904 18.2763 18.1313 19.2354 16.9591 19.2354H15.8934C15.8934 19.2354 10.0322 19.2354 5.3432 12.2553C1.66662 6.82032 0.441095 3.30359 0.0148251 1.27881C-0.0917425 0.639405 0.387812 0 1.0805 0Z" fill="white"/>
</svg>
