<svg width="55" height="54" viewBox="0 0 55 54" fill="none" xmlns="http://www.w3.org/2000/svg">
<g clip-path="url(#clip0_208_1112)">
<path d="M26.224 54H28.4726C40.6785 54 46.7831 54 50.5747 50.2095C54.3652 46.4179 54.3325 40.3165 54.3325 28.1401V25.8599C54.3325 13.6856 54.3325 7.58215 50.5747 3.79055C46.8158 0 40.6785 0 28.4726 0H26.224C14.016 0 7.91467 0 4.12307 3.79055C0.33252 7.58215 0.33252 13.6814 0.33252 25.8599V28.1401C0.33252 40.3165 0.33252 46.4179 4.12307 50.2095C7.91467 54 14.016 54 26.224 54Z" fill="#0077FF"/>
<path d="M29.3099 38.9337C17.1335 38.9337 9.74439 30.4856 9.45752 16.4478H15.6243C15.8162 26.7605 20.5075 31.1364 24.104 32.0287V16.4478H30.0155V25.3451C33.4844 24.9601 37.1135 20.9133 38.3359 16.4478H44.1494C43.2181 21.9406 39.2672 25.9885 36.4723 27.658C39.2672 29.0091 43.7644 32.5423 45.4983 38.9337H39.1069C37.7569 34.6612 34.4483 31.3526 30.0155 30.9033V38.9337H29.3099Z" fill="#FEFEFE"/>
</g>
<defs>
<clipPath id="clip0_208_1112">
<rect width="54" height="54" fill="white" transform="translate(0.33252)"/>
</clipPath>
</defs>
</svg>
