<svg width="22" height="22" viewBox="0 0 22 22" fill="none" xmlns="http://www.w3.org/2000/svg">
<path fill-rule="evenodd" clip-rule="evenodd" d="M18.7946 3.1971C16.7265 1.13649 13.9762 0.00119481 11.0459 0C5.00825 0 0.0942209 4.89015 0.0918642 10.9008C0.0910194 12.8222 0.595429 14.6977 1.55405 16.3509L0 22L5.80688 20.484C7.40682 21.3525 9.20822 21.8103 11.0416 21.811H11.046C11.0456 21.811 11.0464 21.811 11.046 21.811C17.083 21.811 21.9975 16.9203 22 10.9095C22.0011 7.99657 20.8627 5.25762 18.7946 3.1971ZM11.046 19.9698H11.0423C9.40863 19.9692 7.80625 19.5324 6.40836 18.7068L6.07594 18.5105L2.63005 19.41L3.54985 16.0664L3.33335 15.7236C2.422 14.2809 1.94067 12.6135 1.94138 10.9014C1.94334 5.90561 6.0277 1.84121 11.0496 1.84121C13.4814 1.84196 15.7674 2.78573 17.4864 4.49843C19.2053 6.21112 20.1514 8.48769 20.1504 10.9088C20.1484 15.905 16.0642 19.9698 11.046 19.9698Z" fill="white"/>
<path fill-rule="evenodd" clip-rule="evenodd" d="M16.04 13.1836C15.7663 13.0472 14.4206 12.3884 14.1697 12.2974C13.9189 12.2065 13.7364 12.161 13.5539 12.4337C13.3715 12.7064 12.847 13.32 12.6873 13.5018C12.5277 13.6835 12.3679 13.7064 12.0943 13.5699C11.8206 13.4336 10.9387 13.146 9.89329 12.2179C9.07959 11.4956 8.53031 10.6037 8.37059 10.3309C8.21097 10.0583 8.35361 9.91085 8.49065 9.775C8.61377 9.65291 8.76438 9.45687 8.90124 9.29778C9.03806 9.13878 9.08368 9.02505 9.17492 8.8434C9.26616 8.66157 9.22058 8.50248 9.15211 8.36618C9.08368 8.22984 8.53631 6.88908 8.30825 6.34358C8.08602 5.81251 7.8604 5.88447 7.69237 5.87601C7.53297 5.86809 7.35026 5.86646 7.16782 5.86646C6.98538 5.86646 6.6888 5.93465 6.43797 6.20729C6.1871 6.48001 5.47998 7.13906 5.47998 8.47969C5.47998 9.82049 6.46074 11.1158 6.5976 11.2975C6.73442 11.4794 8.5276 14.2306 11.2732 15.4105C11.9262 15.6912 12.4361 15.8588 12.8335 15.9843C13.4892 16.1917 14.0859 16.1624 14.5575 16.0922C15.0834 16.014 16.1768 15.4333 16.4049 14.7971C16.633 14.1608 16.633 13.6153 16.5645 13.5018C16.4961 13.3882 16.3137 13.32 16.04 13.1836Z" fill="white"/>
</svg>
