<svg width="470" height="60" viewBox="0 0 470 60" fill="none" xmlns="http://www.w3.org/2000/svg">
<g clip-path="url(#clip0_370_2)">
<path d="M78.0877 59.8952C65.0062 59.1411 52.9468 47.9937 50.6441 34.7723C49.0425 25.5712 52.6408 18.1067 53.6379 16.1806C57.2739 9.15819 62.6984 5.53205 65.114 4.12125C67.2173 2.89233 72.0122 0.439533 78.5856 0.101042C81.5756 -0.053047 89.7419 -0.0151559 97.5469 5.62804C107.026 12.4825 109.086 22.6284 109.522 25.2239C110.749 32.5242 108.896 38.1989 108.524 39.2927C106.738 44.5418 103.773 47.9482 102.536 49.3426C102.15 49.7771 100.226 51.9204 97.5469 53.8642C96.4018 54.6953 88.2079 60.4774 78.0877 59.8939V59.8952Z" stroke="white" stroke-miterlimit="10"/>
<path d="M54.1384 18.1901C59.8225 5.37417 72.8036 2.47805 74.5959 2.11051C77.5157 1.5131 86.8772 0.0770445 95.7558 6.02589C104.799 12.0846 106.957 21.5257 107.527 24.2185C108.017 26.5349 109.232 32.6606 106.733 39.6906C102.003 52.9889 88.4287 57.0041 87.0691 57.3818C83.5084 58.3707 80.6902 58.3884 80.0831 58.3871C70.9211 58.3682 60.935 53.1481 55.6334 43.8156C54.8131 42.3707 48.5257 30.8418 54.1371 18.1901H54.1384Z" stroke="white" stroke-miterlimit="10"/>
<path d="M60.2878 20.2337C64.8218 10.6877 74.7778 8.53047 75.7874 8.32965C77.0617 8.07578 85.4299 6.55636 93.058 12.1604C94.2094 13.0066 99.8371 17.3161 101.54 25.2251C101.736 26.1358 102.658 30.7054 101.041 36.2791C100.486 38.1951 98.9215 43.3243 94.0551 47.3331C87.2585 52.9321 79.2114 52.0669 77.5897 51.8548C76.8711 51.7613 67.6438 50.4048 62.1215 42.3075C61.5395 41.4537 60.0533 39.1399 59.1276 35.7752C58.6586 34.0714 56.9127 27.3344 60.2878 20.2324V20.2337Z" stroke="white" stroke-miterlimit="10"/>
<path d="M99.5436 36.2791C99.1435 37.551 96.6112 45.1658 88.5667 48.8412C87.4705 49.3426 80.7918 52.2614 73.0984 49.3439C72.2806 49.0332 66.2566 46.6473 62.6206 40.2993C62.2368 39.6287 60.7957 37.0231 60.126 33.2643C59.9918 32.5077 59.3835 28.8778 60.126 25.2251C61.3614 19.1411 66.3068 13.1569 73.0996 10.6536C79.8135 8.17935 88.1202 9.18598 94.0564 14.6738C100.359 20.5002 101.738 29.2959 99.5448 36.2804L99.5436 36.2791Z" stroke="white" stroke-miterlimit="10"/>
<path d="M91.0613 43.8169C90.7189 44.0935 83.4068 49.8023 74.5959 46.8317C66.3344 44.0455 62.6043 35.6021 62.6206 29.748C62.6319 26.0044 64.1169 22.713 64.1169 22.713C64.3703 22.1522 65.4301 19.8863 67.6099 17.6887C68.5631 16.7262 73.3567 11.8914 80.8319 12.1617C88.8376 12.4509 93.4255 18.3568 94.0539 19.1967C97.8918 24.3145 97.651 29.844 97.5469 31.2561C97.4603 32.4345 96.847 39.1361 91.0601 43.8181L91.0613 43.8169Z" stroke="white" stroke-miterlimit="10"/>
<path d="M77.5897 45.8263C85.2392 47.0691 92.4246 42.4212 95.0535 35.7764C97.9695 28.4042 93.9096 21.7619 93.5572 21.2049C90.4041 16.2299 85.263 14.1572 81.8127 13.7594C81.0188 13.6685 80.3277 13.6659 80.0856 13.6685C78.405 13.6798 76.8962 13.9779 75.6031 14.3896C73.3229 15.1171 71.715 16.197 71.0239 16.6732C70.4307 17.0824 69.2768 17.887 68.1104 19.1942C65.2971 22.3492 64.0718 26.5084 64.1182 29.7455C64.221 36.7982 69.283 44.4762 77.5897 45.8251V45.8263Z" stroke="white" stroke-miterlimit="10"/>
<path d="M80.334 32.2589C81.5739 32.2589 82.579 31.2467 82.579 29.9981C82.579 28.7495 81.5739 27.7373 80.334 27.7373C79.0941 27.7373 78.0889 28.7495 78.0889 29.9981C78.0889 31.2467 79.0941 32.2589 80.334 32.2589Z" fill="white" stroke="white" stroke-miterlimit="10"/>
<path d="M80.334 27.7373L77.2774 13.9577" stroke="white" stroke-miterlimit="10"/>
<path d="M75.9593 14.3896L78.9531 28.2172" stroke="white" stroke-miterlimit="10"/>
<path d="M80.9912 27.7373L89.476 16.85" stroke="white" stroke-miterlimit="10"/>
<path d="M82.0874 28.5886L90.5621 18.1901" stroke="white" stroke-miterlimit="10"/>
<path d="M82.579 29.0786H95.7057" stroke="white" stroke-miterlimit="10"/>
<path d="M82.579 30.5538L95.7057 30.8115" stroke="white" stroke-miterlimit="10"/>
<path d="M82.0874 31.4102L90.5621 41.7152" stroke="white" stroke-miterlimit="10"/>
<path d="M80.9912 32.2602L89.476 42.9176" stroke="white" stroke-miterlimit="10"/>
<path d="M80.334 32.2602L77.2774 45.7708" stroke="white" stroke-miterlimit="10"/>
<path d="M78.9531 31.779L75.9593 45.1481" stroke="white" stroke-miterlimit="10"/>
<path d="M78.0877 29.9981L65.5129 36.101" stroke="white" stroke-miterlimit="10"/>
<path d="M66.1111 37.3489L78.5806 31.4102" stroke="white" stroke-miterlimit="10"/>
<path d="M66.1111 22.041L78.5806 28.2185" stroke="white" stroke-miterlimit="10"/>
<path d="M65.5129 23.6906L78.0877 29.5927" stroke="white" stroke-miterlimit="10"/>
<path d="M74.8442 59.6438H48.8982" stroke="white" stroke-width="0.5" stroke-miterlimit="10"/>
<path d="M46.4036 45.575H20.4576" stroke="white" stroke-width="0.5" stroke-miterlimit="10"/>
<path d="M46.4036 21.959H20.4576" stroke="white" stroke-width="0.5" stroke-miterlimit="10"/>
<path d="M53.3896 9.39691H27.4436" stroke="white" stroke-width="0.5" stroke-miterlimit="10"/>
<path d="M54.8859 54.1168H28.9398" stroke="white" stroke-width="0.5" stroke-miterlimit="10"/>
<path d="M39.4188 34.0183H0" stroke="white" stroke-width="0.5" stroke-miterlimit="10"/>
</g>
<path d="M123.92 18.6H136.72C138.811 18.6 140.347 19.08 141.328 20.04C142.309 20.9787 142.8 22.4187 142.8 24.36C142.8 25.64 142.523 26.6853 141.968 27.496C141.413 28.2853 140.731 28.84 139.92 29.16C141.648 29.6293 142.821 30.7813 143.44 32.616C143.653 33.2773 143.76 34.0453 143.76 34.92C143.76 37.0107 143.269 38.5467 142.288 39.528C141.307 40.5093 139.771 41 137.68 41H123.92V18.6ZM138 33.96C138 32.68 137.36 32.04 136.08 32.04H129.68V36.52H136.08C137.36 36.52 138 35.88 138 34.6V33.96ZM137.04 25C137.04 23.72 136.4 23.08 135.12 23.08H129.68V27.56H135.12C136.4 27.56 137.04 26.92 137.04 25.64V25ZM161.039 18.6H166.799V34.92C166.799 37.16 166.287 38.792 165.263 39.816C164.26 40.8187 162.639 41.32 160.399 41.32H153.039C150.799 41.32 149.167 40.8187 148.143 39.816C147.14 38.792 146.639 37.16 146.639 34.92V18.6H152.399V34.92C152.399 36.2 153.039 36.84 154.319 36.84H159.119C160.399 36.84 161.039 36.2 161.039 34.92V18.6ZM170.639 18.6H184.079C186.319 18.6 187.94 19.112 188.943 20.136C189.967 21.1387 190.479 22.76 190.479 25V27.88C190.479 29.6507 190.18 31.0267 189.583 32.008C189.007 32.9893 188.079 33.64 186.799 33.96L190.799 41H184.559L180.879 34.28H176.399V41H170.639V18.6ZM184.719 25C184.719 23.72 184.079 23.08 182.799 23.08H176.399V29.8H182.799C184.079 29.8 184.719 29.16 184.719 27.88V25ZM213.19 41H207.11L199.43 27.56V41H193.67V18.6H199.75L207.43 32.04V18.6H213.19V41ZM231.445 24.68C231.445 23.4 230.805 22.76 229.525 22.76H224.085C222.805 22.76 222.165 23.4 222.165 24.68V34.92C222.165 36.2 222.805 36.84 224.085 36.84H229.525C230.805 36.84 231.445 36.2 231.445 34.92V24.68ZM237.205 34.92C237.205 37.16 236.693 38.792 235.669 39.816C234.666 40.8187 233.045 41.32 230.805 41.32H222.805C220.565 41.32 218.933 40.8187 217.909 39.816C216.906 38.792 216.405 37.16 216.405 34.92V24.68C216.405 22.44 216.906 20.8187 217.909 19.816C218.933 18.792 220.565 18.28 222.805 18.28H230.805C233.045 18.28 234.666 18.792 235.669 19.816C236.693 20.8187 237.205 22.44 237.205 24.68V34.92ZM254.82 18.6H260.58V34.92C260.58 37.16 260.068 38.792 259.044 39.816C258.041 40.8187 256.42 41.32 254.18 41.32H246.82C244.58 41.32 242.948 40.8187 241.924 39.816C240.921 38.792 240.42 37.16 240.42 34.92V18.6H246.18V34.92C246.18 36.2 246.82 36.84 248.1 36.84H252.9C254.18 36.84 254.82 36.2 254.82 34.92V18.6ZM275.3 41H269.54V23.08H262.82V18.6H282.02V23.08H275.3V41Z" fill="white"/>
<path d="M293.858 18.6H307.298C309.538 18.6 311.159 19.112 312.162 20.136C313.186 21.1387 313.698 22.76 313.698 25V28.2C313.698 30.44 313.186 32.072 312.162 33.096C311.159 34.0987 309.538 34.6 307.298 34.6H299.618V41H293.858V18.6ZM307.938 25C307.938 23.72 307.298 23.08 306.018 23.08H299.618V30.12H306.018C307.298 30.12 307.938 29.48 307.938 28.2V25ZM316.576 18.6H330.016C332.256 18.6 333.878 19.112 334.88 20.136C335.904 21.1387 336.416 22.76 336.416 25V27.88C336.416 29.6507 336.118 31.0267 335.52 32.008C334.944 32.9893 334.016 33.64 332.736 33.96L336.736 41H330.496L326.816 34.28H322.336V41H316.576V18.6ZM330.656 25C330.656 23.72 330.016 23.08 328.736 23.08H322.336V29.8H328.736C330.016 29.8 330.656 29.16 330.656 27.88V25ZM354.008 24.68C354.008 23.4 353.368 22.76 352.088 22.76H346.648C345.368 22.76 344.728 23.4 344.728 24.68V34.92C344.728 36.2 345.368 36.84 346.648 36.84H352.088C353.368 36.84 354.008 36.2 354.008 34.92V24.68ZM359.768 34.92C359.768 37.16 359.256 38.792 358.232 39.816C357.229 40.8187 355.608 41.32 353.368 41.32H345.368C343.128 41.32 341.496 40.8187 340.472 39.816C339.469 38.792 338.968 37.16 338.968 34.92V24.68C338.968 22.44 339.469 20.8187 340.472 19.816C341.496 18.792 343.128 18.28 345.368 18.28H353.368C355.608 18.28 357.229 18.792 358.232 19.816C359.256 20.8187 359.768 22.44 359.768 24.68V34.92ZM382.183 40.52C377.191 41.0533 372.604 41.32 368.423 41.32C366.332 41.32 364.796 40.8293 363.815 39.848C362.833 38.8667 362.343 37.3307 362.343 35.24V25C362.343 22.76 362.844 21.1387 363.847 20.136C364.871 19.112 366.503 18.6 368.743 18.6H380.263V23.08H370.023C368.743 23.08 368.103 23.72 368.103 25V35.24C368.103 35.7307 368.241 36.1253 368.519 36.424C368.817 36.7013 369.212 36.84 369.703 36.84C372.156 36.84 374.396 36.7867 376.423 36.68V32.04H372.263V28.2H382.183V40.52ZM385.389 18.6H398.829C401.069 18.6 402.69 19.112 403.693 20.136C404.717 21.1387 405.229 22.76 405.229 25V27.88C405.229 29.6507 404.93 31.0267 404.333 32.008C403.757 32.9893 402.829 33.64 401.549 33.96L405.549 41H399.309L395.629 34.28H391.149V41H385.389V18.6ZM399.469 25C399.469 23.72 398.829 23.08 397.549 23.08H391.149V29.8H397.549C398.829 29.8 399.469 29.16 399.469 27.88V25ZM426.18 41H408.42V18.6H426.18V23.08H414.18V27.4H423.62V31.88H414.18V36.52H426.18V41ZM428.061 36.36C433.906 36.68 437.863 36.84 439.933 36.84C440.423 36.84 440.807 36.7013 441.085 36.424C441.383 36.1253 441.533 35.7307 441.533 35.24V32.36H434.173C431.933 32.36 430.301 31.8587 429.277 30.856C428.274 29.832 427.773 28.2 427.773 25.96V25C427.773 22.76 428.274 21.1387 429.277 20.136C430.301 19.112 431.933 18.6 434.173 18.6H445.405V23.08H435.453C434.173 23.08 433.533 23.72 433.533 25V25.64C433.533 26.92 434.173 27.56 435.453 27.56H441.213C443.303 27.56 444.839 28.0507 445.821 29.032C446.802 30.0133 447.293 31.5493 447.293 33.64V35.24C447.293 37.3307 446.802 38.8667 445.821 39.848C444.839 40.8293 443.303 41.32 441.213 41.32C440.125 41.32 438.973 41.2987 437.757 41.256L434.812 41.128C432.637 41.0213 430.386 40.872 428.061 40.68V36.36ZM449.498 36.36C455.343 36.68 459.301 36.84 461.37 36.84C461.861 36.84 462.245 36.7013 462.522 36.424C462.821 36.1253 462.97 35.7307 462.97 35.24V32.36H455.61C453.37 32.36 451.738 31.8587 450.714 30.856C449.711 29.832 449.21 28.2 449.21 25.96V25C449.21 22.76 449.711 21.1387 450.714 20.136C451.738 19.112 453.37 18.6 455.61 18.6H466.842V23.08H456.89C455.61 23.08 454.97 23.72 454.97 25V25.64C454.97 26.92 455.61 27.56 456.89 27.56H462.65C464.741 27.56 466.277 28.0507 467.258 29.032C468.239 30.0133 468.73 31.5493 468.73 33.64V35.24C468.73 37.3307 468.239 38.8667 467.258 39.848C466.277 40.8293 464.741 41.32 462.65 41.32C461.562 41.32 460.41 41.2987 459.194 41.256L456.25 41.128C454.074 41.0213 451.823 40.872 449.498 40.68V36.36Z" fill="#971717"/>
<defs>
<clipPath id="clip0_370_2">
<rect width="110" height="60" fill="white"/>
</clipPath>
</defs>
</svg>
