<?xml version="1.0" encoding="UTF-8"?><svg id="_Слой_1" xmlns="http://www.w3.org/2000/svg" width="859.74" height="465.62" viewBox="0 0 859.74 465.62"><defs><style>.cls-1,.cls-2{stroke:#fff;}.cls-1,.cls-2,.cls-3{fill:none;stroke-miterlimit:10;}.cls-2,.cls-3{stroke-width:.75px;}.cls-3{stroke:#1d1d1b;}.cls-4{fill:#fff;stroke-width:0px;}</style></defs><g id="_Колесо"><path class="cls-1" d="m610.2,464.8c-102.2-5.9-196.4-92.3-214.4-194.9-12.5-71.4,15.6-129.3,23.4-144.3,28.4-54.5,70.8-82.6,89.7-93.6,16.4-9.5,53.9-28.6,105.3-31.2,23.4-1.2,87.2-.9,148.2,42.9,74.1,53.2,90.2,131.9,93.6,152,9.6,56.6-4.9,100.7-7.8,109.2-14,40.7-37.1,67.2-46.8,78-3,3.4-18.1,20-39,35.1-9.1,6.4-73.2,51.3-152.2,46.8h0Z"/><path class="cls-1" d="m423,141.2c44.4-99.5,145.9-121.9,159.9-124.8,22.8-4.6,96-15.8,165.3,30.4,70.7,47,87.5,120.3,92,141.2,3.8,18,13.3,65.5-6.2,120-37,103.2-143,134.3-153.6,137.3-27.8,7.7-49.8,7.8-54.6,7.8-71.6-.1-149.6-40.7-191-113.1-6.5-11.2-55.6-100.6-11.8-198.8h0Z"/><path class="cls-1" d="m471.1,157c35.4-74,113.2-90.8,121.1-92.3,10-2,75.3-13.8,134.9,29.7,9,6.6,53,40,66.3,101.4,1.5,7.1,8.7,42.5-3.9,85.8-4.3,14.9-16.6,54.7-54.6,85.8-53.1,43.4-116,36.7-128.7,35.1-5.6-.7-77.7-11.3-120.9-74.1-4.5-6.6-16.2-24.6-23.4-50.7-3.5-13.3-17.2-65.6,9.2-120.7h0Z"/><path class="cls-1" d="m777.8,281.5c-3.1,9.9-22.9,69-85.8,97.5-8.6,3.9-60.8,26.5-120.9,3.9-6.4-2.4-53.5-20.9-81.9-70.2-3-5.2-14.3-25.4-19.5-54.6-1-5.9-5.8-34,0-62.4,9.7-47.2,48.3-93.6,101.4-113.1,52.5-19.2,117.4-11.4,163.7,31.2,49.4,45.3,60.2,113.6,43,167.7h0Z"/><path class="cls-1" d="m711.5,340c-2.7,2.1-59.8,46.4-128.7,23.4-64.6-21.6-93.7-87.1-93.6-132.6.1-29,11.7-54.6,11.7-54.6,2-4.4,10.3-21.9,27.3-39,7.4-7.5,44.9-45,103.3-42.9,62.6,2.2,98.4,48.1,103.3,54.6,30,39.7,28.1,82.6,27.3,93.6-.6,9.2-5.4,61.2-50.6,97.5h0Z"/><path class="cls-1" d="m606.3,355.6c59.8,9.6,115.9-26.4,136.5-78,22.8-57.2-8.9-108.7-11.7-113.1-24.6-38.6-64.8-54.7-91.8-57.8-6.2-.7-11.6-.7-13.5-.7-13.1.1-24.9,2.4-35,5.6-17.8,5.6-30.4,14-35.8,17.7-4.6,3.2-13.7,9.4-22.8,19.6-22,24.5-31.6,56.8-31.2,81.9.8,54.8,40.4,114.3,105.3,124.8h0Z"/><circle class="cls-4" cx="627.7" cy="232.8" r="17.5"/><line class="cls-1" x1="627.7" y1="215.3" x2="603.8" y2="108.3"/><line class="cls-1" x1="593.5" y1="111.7" x2="616.9" y2="219"/><line class="cls-1" x1="632.9" y1="215.3" x2="699.2" y2="130.8"/><line class="cls-1" x1="641.4" y1="221.9" x2="707.6" y2="141.2"/><line class="cls-1" x1="645.3" y1="225.7" x2="747.8" y2="225.7"/><line class="cls-1" x1="645.3" y1="237.1" x2="747.8" y2="239.1"/><line class="cls-1" x1="641.4" y1="243.8" x2="707.6" y2="323.7"/><line class="cls-1" x1="632.9" y1="250.4" x2="699.2" y2="333"/><line class="cls-1" x1="627.7" y1="250.4" x2="603.8" y2="355.2"/><line class="cls-1" x1="616.9" y1="246.6" x2="593.5" y2="350.4"/><line class="cls-1" x1="610.2" y1="232.8" x2="511.9" y2="280.2"/><line class="cls-1" x1="516.6" y1="289.8" x2="614" y2="243.8"/><line class="cls-1" x1="516.6" y1="171.1" x2="614" y2="219"/><line class="cls-1" x1="511.9" y1="183.9" x2="610.2" y2="229.7"/></g><line class="cls-3" x1="591" y1="462.8" x2="382.1" y2="462.8"/><line class="cls-2" x1="362.6" y1="353.7" x2="159.9" y2="353.7"/><line class="cls-2" x1="362.6" y1="170.4" x2="159.9" y2="170.4"/><line class="cls-2" x1="417.2" y1="73" x2="214.5" y2="73"/><line class="cls-2" x1="428.9" y1="419.9" x2="226.1" y2="419.9"/><line class="cls-2" x1="308" y1="264" y2="264"/></svg>