<svg width="696" height="207" viewBox="0 0 696 207" fill="none" xmlns="http://www.w3.org/2000/svg">
<g clip-path="url(#clip0_614_2)">
<path d="M346.305 121.787C319.785 120.254 295.337 97.5871 290.669 70.7037C287.422 51.9948 294.717 36.817 296.738 32.9006C304.11 18.6217 315.107 11.2485 320.004 8.37987C324.268 5.88106 333.988 0.893707 347.314 0.205442C353.376 -0.107872 369.931 -0.0308269 385.754 11.4437C404.971 25.381 409.146 46.011 410.031 51.2885C412.518 66.1324 408.762 77.6711 408.007 79.8952C404.386 90.5684 398.376 97.4947 395.869 100.33C395.085 101.213 391.185 105.572 385.754 109.524C383.432 111.214 366.821 122.971 346.305 121.784V121.787Z" stroke="white" stroke-miterlimit="10"/>
<path d="M297.753 36.9866C309.276 10.9275 335.592 5.03878 339.226 4.29144C345.145 3.07671 364.123 0.156722 382.123 12.2527C400.455 24.5721 404.831 43.7691 405.986 49.2444C406.98 53.9543 409.444 66.4099 404.376 80.7042C394.788 107.744 367.269 115.908 364.512 116.676C357.294 118.687 351.581 118.723 350.35 118.721C331.776 118.682 311.531 108.068 300.784 89.0918C299.121 86.1538 286.375 62.7117 297.75 36.9866H297.753Z" stroke="white" stroke-miterlimit="10"/>
<path d="M310.22 41.142C319.411 21.7319 339.595 17.3455 341.642 16.9372C344.225 16.421 361.19 13.3315 376.654 24.7264C378.988 26.447 390.397 35.2096 393.85 51.2913C394.246 53.143 396.115 62.4345 392.838 73.7678C391.711 77.6637 388.541 88.0929 378.675 96.2442C364.897 107.629 348.583 105.87 345.295 105.438C343.839 105.248 325.132 102.49 313.937 86.0256C312.757 84.2895 309.744 79.5846 307.868 72.7431C306.917 69.2786 303.377 55.5801 310.22 41.1394V41.142Z" stroke="white" stroke-miterlimit="10"/>
<path d="M389.802 73.7678C388.99 76.3539 383.857 91.8373 367.548 99.3106C365.326 100.33 351.787 106.265 336.19 100.333C334.532 99.7009 322.32 94.8497 314.949 81.9422C314.171 80.5785 311.249 75.2804 309.891 67.6376C309.619 66.0993 308.386 58.7184 309.891 51.2913C312.396 38.9205 322.422 26.7526 336.192 21.6626C349.803 16.6315 366.643 18.6784 378.678 29.837C391.454 41.6839 394.251 59.5685 389.804 73.7703L389.802 73.7678Z" stroke="white" stroke-miterlimit="10"/>
<path d="M372.606 89.0943C371.912 89.6567 357.088 101.265 339.226 95.2245C322.478 89.5591 314.916 72.391 314.949 60.4876C314.972 52.8756 317.982 46.183 317.982 46.183C318.496 45.0428 320.644 40.4355 325.063 35.9669C326.996 34.01 336.714 24.1791 351.868 24.7287C368.098 25.3168 377.399 37.3255 378.673 39.0333C386.453 49.4395 385.965 60.6828 385.754 63.554C385.578 65.9501 384.335 79.5767 372.603 89.0968L372.606 89.0943Z" stroke="white" stroke-miterlimit="10"/>
<path d="M345.296 93.1803C360.803 95.7074 375.37 86.2566 380.699 72.7455C386.611 57.7552 378.38 44.2493 377.666 43.1168C371.274 33.0008 360.851 28.7865 353.857 27.9775C352.247 27.7926 350.846 27.7875 350.355 27.7926C346.948 27.8157 343.889 28.4218 341.268 29.259C336.645 30.7383 333.386 32.9341 331.985 33.9022C330.782 34.7343 328.443 36.3702 326.078 39.0283C320.375 45.4435 317.891 53.9004 317.985 60.4826C318.193 74.8232 328.456 90.435 345.296 93.1777V93.1803Z" stroke="white" stroke-miterlimit="10"/>
<path d="M350.858 65.5929C353.372 65.5929 355.41 63.5348 355.41 60.9959C355.41 58.4571 353.372 56.3989 350.858 56.3989C348.345 56.3989 346.307 58.4571 346.307 60.9959C346.307 63.5348 348.345 65.5929 350.858 65.5929Z" fill="white" stroke="white" stroke-miterlimit="10"/>
<path d="M350.859 56.3994L344.662 28.3809" stroke="white" stroke-miterlimit="10"/>
<path d="M341.99 29.2588L348.059 57.3749" stroke="white" stroke-miterlimit="10"/>
<path d="M352.191 56.3992L369.392 34.2617" stroke="white" stroke-miterlimit="10"/>
<path d="M354.413 58.1299L371.594 36.9863" stroke="white" stroke-miterlimit="10"/>
<path d="M355.41 59.1265H382.021" stroke="white" stroke-miterlimit="10"/>
<path d="M355.41 62.126L382.021 62.6499" stroke="white" stroke-miterlimit="10"/>
<path d="M354.413 63.8672L371.594 84.8207" stroke="white" stroke-miterlimit="10"/>
<path d="M352.191 65.5957L369.392 87.2658" stroke="white" stroke-miterlimit="10"/>
<path d="M350.859 65.5957L344.662 93.0672" stroke="white" stroke-miterlimit="10"/>
<path d="M348.059 64.6172L341.99 91.8011" stroke="white" stroke-miterlimit="10"/>
<path d="M346.305 60.9961L320.812 73.4054" stroke="white" stroke-miterlimit="10"/>
<path d="M322.025 75.9426L347.304 63.8672" stroke="white" stroke-miterlimit="10"/>
<path d="M322.025 44.8169L347.304 57.3777" stroke="white" stroke-miterlimit="10"/>
<path d="M320.812 48.1709L346.305 60.1719" stroke="white" stroke-miterlimit="10"/>
<path d="M339.73 121.276H287.13" stroke="white" stroke-width="0.5" stroke-miterlimit="10"/>
<path d="M282.073 92.6689H229.473" stroke="white" stroke-width="0.5" stroke-miterlimit="10"/>
<path d="M282.073 44.6499H229.473" stroke="white" stroke-width="0.5" stroke-miterlimit="10"/>
<path d="M296.235 19.1069H243.636" stroke="white" stroke-width="0.5" stroke-miterlimit="10"/>
<path d="M299.269 110.038H246.669" stroke="white" stroke-width="0.5" stroke-miterlimit="10"/>
<path d="M267.913 69.1704H188" stroke="white" stroke-width="0.5" stroke-miterlimit="10"/>
</g>
<path d="M3.84 144.2H29.44C33.6213 144.2 36.6933 145.16 38.656 147.08C40.6187 148.957 41.6 151.837 41.6 155.72C41.6 158.28 41.0453 160.371 39.936 161.992C38.8267 163.571 37.4613 164.68 35.84 165.32C39.296 166.259 41.6427 168.563 42.88 172.232C43.3067 173.555 43.52 175.091 43.52 176.84C43.52 181.021 42.5387 184.093 40.576 186.056C38.6133 188.019 35.5413 189 31.36 189H3.84V144.2ZM32 174.92C32 172.36 30.72 171.08 28.16 171.08H15.36V180.04H28.16C30.72 180.04 32 178.76 32 176.2V174.92ZM30.08 157C30.08 154.44 28.8 153.16 26.24 153.16H15.36V162.12H26.24C28.8 162.12 30.08 160.84 30.08 158.28V157ZM78.0775 144.2H89.5975V176.84C89.5975 181.32 88.5735 184.584 86.5255 186.632C84.5202 188.637 81.2775 189.64 76.7975 189.64H62.0775C57.5975 189.64 54.3335 188.637 52.2855 186.632C50.2802 184.584 49.2775 181.32 49.2775 176.84V144.2H60.7975V176.84C60.7975 179.4 62.0775 180.68 64.6375 180.68H74.2375C76.7975 180.68 78.0775 179.4 78.0775 176.84V144.2ZM97.2775 144.2H124.158C128.638 144.2 131.88 145.224 133.886 147.272C135.934 149.277 136.958 152.52 136.958 157V162.76C136.958 166.301 136.36 169.053 135.166 171.016C134.014 172.979 132.157 174.28 129.597 174.92L137.598 189H125.118L117.758 175.56H108.798V189H97.2775V144.2ZM125.438 157C125.438 154.44 124.158 153.16 121.598 153.16H108.798V166.6H121.598C124.158 166.6 125.438 165.32 125.438 162.76V157ZM182.38 189H170.22L154.86 162.12V189H143.34V144.2H155.5L170.86 171.08V144.2H182.38V189ZM218.89 156.36C218.89 153.8 217.61 152.52 215.05 152.52H204.17C201.61 152.52 200.33 153.8 200.33 156.36V176.84C200.33 179.4 201.61 180.68 204.17 180.68H215.05C217.61 180.68 218.89 179.4 218.89 176.84V156.36ZM230.41 176.84C230.41 181.32 229.386 184.584 227.338 186.632C225.333 188.637 222.09 189.64 217.61 189.64H201.61C197.13 189.64 193.866 188.637 191.818 186.632C189.813 184.584 188.81 181.32 188.81 176.84V156.36C188.81 151.88 189.813 148.637 191.818 146.632C193.866 144.584 197.13 143.56 201.61 143.56H217.61C222.09 143.56 225.333 144.584 227.338 146.632C229.386 148.637 230.41 151.88 230.41 156.36V176.84ZM265.64 144.2H277.16V176.84C277.16 181.32 276.136 184.584 274.088 186.632C272.083 188.637 268.84 189.64 264.36 189.64H249.64C245.16 189.64 241.896 188.637 239.848 186.632C237.843 184.584 236.84 181.32 236.84 176.84V144.2H248.36V176.84C248.36 179.4 249.64 180.68 252.2 180.68H261.8C264.36 180.68 265.64 179.4 265.64 176.84V144.2ZM306.6 189H295.08V153.16H281.64V144.2H320.04V153.16H306.6V189Z" fill="white"/>
<path d="M343.715 144.2H370.595C375.075 144.2 378.318 145.224 380.323 147.272C382.371 149.277 383.395 152.52 383.395 157V163.4C383.395 167.88 382.371 171.144 380.323 173.192C378.318 175.197 375.075 176.2 370.595 176.2H355.235V189H343.715V144.2ZM371.875 157C371.875 154.44 370.595 153.16 368.035 153.16H355.235V167.24H368.035C370.595 167.24 371.875 165.96 371.875 163.4V157ZM389.153 144.2H416.033C420.513 144.2 423.755 145.224 425.761 147.272C427.809 149.277 428.833 152.52 428.833 157V162.76C428.833 166.301 428.235 169.053 427.041 171.016C425.889 172.979 424.032 174.28 421.472 174.92L429.473 189H416.993L409.633 175.56H400.673V189H389.153V144.2ZM417.312 157C417.312 154.44 416.033 153.16 413.473 153.16H400.673V166.6H413.473C416.033 166.6 417.312 165.32 417.312 162.76V157ZM464.015 156.36C464.015 153.8 462.735 152.52 460.175 152.52H449.295C446.735 152.52 445.455 153.8 445.455 156.36V176.84C445.455 179.4 446.735 180.68 449.295 180.68H460.175C462.735 180.68 464.015 179.4 464.015 176.84V156.36ZM475.535 176.84C475.535 181.32 474.511 184.584 472.463 186.632C470.458 188.637 467.215 189.64 462.735 189.64H446.735C442.255 189.64 438.991 188.637 436.943 186.632C434.938 184.584 433.935 181.32 433.935 176.84V156.36C433.935 151.88 434.938 148.637 436.943 146.632C438.991 144.584 442.255 143.56 446.735 143.56H462.735C467.215 143.56 470.458 144.584 472.463 146.632C474.511 148.637 475.535 151.88 475.535 156.36V176.84ZM520.365 188.04C510.381 189.107 501.208 189.64 492.845 189.64C488.664 189.64 485.592 188.659 483.629 186.696C481.666 184.733 480.685 181.661 480.685 177.48V157C480.685 152.52 481.688 149.277 483.693 147.272C485.741 145.224 489.005 144.2 493.485 144.2H516.525V153.16H496.045C493.485 153.16 492.205 154.44 492.205 157V177.48C492.205 178.461 492.482 179.251 493.037 179.848C493.634 180.403 494.424 180.68 495.405 180.68C500.312 180.68 504.792 180.573 508.845 180.36V171.08H500.525V163.4H520.365V188.04ZM526.778 144.2H553.658C558.138 144.2 561.38 145.224 563.386 147.272C565.434 149.277 566.458 152.52 566.458 157V162.76C566.458 166.301 565.86 169.053 564.666 171.016C563.514 172.979 561.657 174.28 559.097 174.92L567.098 189H554.618L547.258 175.56H538.298V189H526.778V144.2ZM554.938 157C554.938 154.44 553.658 153.16 551.098 153.16H538.298V166.6H551.098C553.658 166.6 554.938 165.32 554.938 162.76V157ZM608.36 189H572.84V144.2H608.36V153.16H584.36V161.8H603.24V170.76H584.36V180.04H608.36V189ZM612.121 179.72C623.812 180.36 631.726 180.68 635.865 180.68C636.846 180.68 637.614 180.403 638.169 179.848C638.766 179.251 639.065 178.461 639.065 177.48V171.72H624.345C619.865 171.72 616.601 170.717 614.553 168.712C612.548 166.664 611.545 163.4 611.545 158.92V157C611.545 152.52 612.548 149.277 614.553 147.272C616.601 145.224 619.865 144.2 624.345 144.2H646.809V153.16H626.905C624.345 153.16 623.065 154.44 623.065 157V158.28C623.065 160.84 624.345 162.12 626.905 162.12H638.425C642.606 162.12 645.678 163.101 647.641 165.064C649.604 167.027 650.585 170.099 650.585 174.28V177.48C650.585 181.661 649.604 184.733 647.641 186.696C645.678 188.659 642.606 189.64 638.425 189.64C636.249 189.64 633.945 189.597 631.513 189.512L625.625 189.256C621.273 189.043 616.772 188.744 612.121 188.36V179.72ZM654.996 179.72C666.687 180.36 674.601 180.68 678.74 180.68C679.721 180.68 680.489 180.403 681.044 179.848C681.641 179.251 681.94 178.461 681.94 177.48V171.72H667.22C662.74 171.72 659.476 170.717 657.428 168.712C655.423 166.664 654.42 163.4 654.42 158.92V157C654.42 152.52 655.423 149.277 657.428 147.272C659.476 145.224 662.74 144.2 667.22 144.2H689.684V153.16H669.78C667.22 153.16 665.94 154.44 665.94 157V158.28C665.94 160.84 667.22 162.12 669.78 162.12H681.3C685.481 162.12 688.553 163.101 690.516 165.064C692.479 167.027 693.46 170.099 693.46 174.28V177.48C693.46 181.661 692.479 184.733 690.516 186.696C688.553 188.659 685.481 189.64 681.3 189.64C679.124 189.64 676.82 189.597 674.388 189.512L668.5 189.256C664.148 189.043 659.647 188.744 654.996 188.36V179.72Z" fill="#971717"/>
<defs>
<clipPath id="clip0_614_2">
<rect width="223" height="122" fill="white" transform="translate(188)"/>
</clipPath>
</defs>
</svg>
