<?xml version="1.0" encoding="UTF-8"?><svg id="_Слой_1" xmlns="http://www.w3.org/2000/svg" width="1848" height="1067.33" viewBox="0 0 1848 1067.33"><defs><style>.cls-1,.cls-2,.cls-3{stroke:#fff;stroke-miterlimit:10;stroke-width:15px;}.cls-1,.cls-3{fill:none;}.cls-2{fill:#fff;}.cls-3{stroke-linecap:round;}</style></defs><g id="_Колесо"><path class="cls-1" d="m1276.44,1059.11c-231.48-13.36-444.83-209.05-485.6-441.44-28.31-161.72,35.33-292.86,53-326.83,64.32-123.44,160.36-187.08,203.17-212,37.15-21.52,122.08-64.78,238.5-70.67,53-2.72,197.5-2.04,335.66,97.17,167.83,120.49,204.3,298.75,212,344.27,21.74,128.2-11.1,228.08-17.67,247.33-31.71,92.18-84.03,152.2-106,176.67-6.79,7.7-41,45.3-88.33,79.5-20.61,14.5-165.79,116.19-344.72,106h0Z"/><path class="cls-1" d="m852.44,326.18c100.56-225.36,330.45-276.1,362.16-282.66,51.64-10.42,217.43-35.79,374.39,68.85,160.13,106.45,198.18,272.47,208.37,319.81,8.61,40.77,30.12,148.35-14.04,271.79-83.8,233.74-323.89,304.18-347.89,310.98-62.97,17.44-112.79,17.67-123.67,17.67-162.17-.23-338.84-92.18-432.6-256.16-14.72-25.37-125.93-227.85-26.73-450.27h0Z"/><path class="cls-1" d="m961.38,361.96c80.18-167.61,256.39-205.66,274.28-209.05,22.65-4.53,170.55-31.26,305.54,67.27,20.38,14.95,120.04,90.6,150.17,229.66,3.4,16.08,19.71,96.26-8.83,194.33-9.74,33.75-37.6,123.89-123.67,194.33-120.27,98.3-262.73,83.12-291.5,79.5-12.68-1.59-175.99-25.59-273.83-167.83-10.19-14.95-36.69-55.72-53-114.83-7.93-30.12-38.96-148.58,20.84-273.38h0Z"/><path class="cls-1" d="m1656.04,643.95c-7.02,22.42-51.87,156.28-194.33,220.83-19.48,8.83-137.71,60.02-273.83,8.83-14.5-5.44-121.17-47.34-185.5-159-6.79-11.78-32.39-57.53-44.17-123.67-2.26-13.36-13.14-77.01,0-141.33,21.97-106.91,109.4-212,229.66-256.16,118.91-43.49,265.9-25.82,370.77,70.67,111.89,102.6,136.35,257.3,97.39,379.83h0Z"/><path class="cls-1" d="m1505.87,776.45c-6.12,4.76-135.44,105.09-291.5,53-146.32-48.92-212.22-197.28-212-300.33.23-65.68,26.5-123.67,26.5-123.67,4.53-9.97,23.33-49.6,61.83-88.33,16.76-16.99,101.7-101.92,233.97-97.17,141.79,4.98,222.87,108.94,233.97,123.67,67.95,89.92,63.64,187.08,61.83,212-1.36,20.84-12.23,138.61-114.61,220.83h0Z"/><path class="cls-1" d="m1267.6,811.78c135.44,21.74,262.51-59.79,309.16-176.67,51.64-129.55-20.16-246.2-26.5-256.16-55.72-87.43-146.77-123.89-207.92-130.91-14.04-1.59-26.27-1.59-30.58-1.59-29.67.23-56.4,5.44-79.27,12.68-40.32,12.68-68.85,31.71-81.08,40.09-10.42,7.25-31.03,21.29-51.64,44.39-49.83,55.49-71.57,128.65-70.67,185.5,1.81,124.12,91.5,258.88,238.5,282.66h0Z"/><circle class="cls-2" cx="1316.07" cy="533.65" r="39.64"/><line class="cls-1" x1="1316.07" y1="494.01" x2="1261.94" y2="251.66"/><line class="cls-1" x1="1238.61" y1="259.36" x2="1291.61" y2="502.39"/><line class="cls-1" x1="1327.85" y1="494.01" x2="1478.02" y2="302.62"/><line class="cls-1" x1="1347.1" y1="508.96" x2="1497.04" y2="326.18"/><line class="cls-1" x1="1355.94" y1="517.57" x2="1588.09" y2="517.57"/><line class="cls-1" x1="1355.94" y1="543.39" x2="1588.09" y2="547.92"/><line class="cls-1" x1="1347.1" y1="558.56" x2="1497.04" y2="739.53"/><line class="cls-1" x1="1327.85" y1="573.51" x2="1478.02" y2="760.59"/><line class="cls-1" x1="1316.07" y1="573.51" x2="1261.94" y2="810.88"/><line class="cls-1" x1="1291.61" y1="564.9" x2="1238.61" y2="800"/><line class="cls-1" x1="1276.44" y1="533.65" x2="1053.79" y2="641.01"/><line class="cls-1" x1="1064.44" y1="662.75" x2="1285.04" y2="558.56"/><line class="cls-1" x1="1064.44" y1="393.9" x2="1285.04" y2="502.39"/><line class="cls-1" x1="1053.79" y1="422.89" x2="1276.44" y2="526.63"/></g><line class="cls-3" x1="715.64" y1="807.48" x2="256.53" y2="807.48"/><line class="cls-3" x1="715.64" y1="392.31" x2="256.53" y2="392.31"/><line class="cls-3" x1="839.3" y1="171.71" x2="380.2" y2="171.71"/><line class="cls-3" x1="865.8" y1="957.42" x2="406.47" y2="957.42"/><line class="cls-3" x1="591.97" y1="604.31" x2="7.5" y2="604.31"/></svg>