<svg width="326" height="52" viewBox="0 0 326 52" fill="none" xmlns="http://www.w3.org/2000/svg">
<path d="M65.3096 50.9126C54.3687 50.2843 44.2827 40.9947 42.3568 29.9769C41.0172 22.3093 44.0268 16.0889 44.8607 14.4838C47.9017 8.6318 52.4386 5.61001 54.4589 4.43434C56.2181 3.41024 60.2283 1.36625 65.726 1.08417C68.2268 0.955762 75.0567 0.987338 81.5846 5.69C89.5128 11.402 91.2352 19.8569 91.6002 22.0199C92.6262 28.1034 91.0768 32.8324 90.7653 33.7439C89.2715 38.1182 86.7917 40.9568 85.7574 42.1188C85.4343 42.4809 83.8252 44.267 81.5846 45.8868C80.6268 46.5794 73.7738 51.3978 65.3096 50.9116V50.9126Z" stroke="white" stroke-miterlimit="10"/>
<path d="M45.2793 16.1584C50.0333 5.47849 60.8903 3.06506 62.3893 2.75878C64.8313 2.26093 72.6609 1.06422 80.0867 6.02159C87.6498 11.0705 89.4551 18.9381 89.9314 21.1821C90.3415 23.1124 91.358 28.2172 89.2674 34.0755C85.3116 45.1575 73.9585 48.5034 72.8214 48.8181C69.8434 49.6423 67.4863 49.657 66.9786 49.6559C59.3158 49.6402 50.9638 45.2901 46.5297 37.513C45.8437 36.3089 40.5851 26.7015 45.2783 16.1584H45.2793Z" stroke="white" stroke-miterlimit="10"/>
<path d="M50.4224 17.8614C54.2145 9.90645 62.5413 8.10875 63.3857 7.9414C64.4515 7.72984 71.4503 6.46366 77.8302 11.1337C78.7932 11.8389 83.5 15.4301 84.9245 22.021C85.0882 22.7798 85.8592 26.5879 84.507 31.2326C84.0423 32.8293 82.7342 37.1036 78.6642 40.4443C72.9797 45.1101 66.2495 44.3891 64.8931 44.2123C64.2921 44.1344 56.5747 43.004 51.956 36.2563C51.4693 35.5448 50.2263 33.6166 49.4521 30.8127C49.0598 29.3928 47.5996 23.7787 50.4224 17.8604V17.8614Z" stroke="white" stroke-miterlimit="10"/>
<path d="M83.2545 31.2325C82.9199 32.2924 80.802 38.638 74.0738 41.7008C73.157 42.1187 67.5711 44.5511 61.1367 42.1197C60.4527 41.8608 55.4145 39.8726 52.3735 34.5826C52.0525 34.0238 50.8472 31.8524 50.2871 28.7201C50.1748 28.0896 49.6661 25.0647 50.2871 22.0208C51.3203 16.9508 55.4564 11.964 61.1377 9.87787C66.7529 7.81598 73.7003 8.65484 78.6652 13.228C83.9363 18.0833 85.0902 25.4131 83.2555 31.2335L83.2545 31.2325Z" stroke="white" stroke-miterlimit="10"/>
<path d="M76.1603 37.5139C75.8739 37.7444 69.7584 42.5018 62.3893 40.0263C55.4796 37.7044 52.3599 30.6683 52.3736 25.7899C52.383 22.6702 53.625 19.9273 53.625 19.9273C53.8369 19.46 54.7233 17.5718 56.5464 15.7404C57.3437 14.9384 61.3529 10.9093 67.6048 11.1346C74.3005 11.3756 78.1377 16.2972 78.6632 16.9971C81.8731 21.2619 81.6717 25.8699 81.5846 27.0466C81.5122 28.0286 80.9993 33.6133 76.1593 37.515L76.1603 37.5139Z" stroke="white" stroke-miterlimit="10"/>
<path d="M64.8932 39.1886C71.2909 40.2243 77.3006 36.351 79.4992 30.8137C81.9381 24.6701 78.5426 19.1349 78.2478 18.6707C75.6106 14.5249 71.3109 12.7977 68.4251 12.4661C67.7611 12.3903 67.1831 12.3882 66.9807 12.3903C65.575 12.3998 64.3131 12.6482 63.2316 12.9913C61.3245 13.5976 59.9798 14.4975 59.4018 14.8943C58.9056 15.2353 57.9405 15.9058 56.965 16.9951C54.6121 19.6243 53.5872 23.0903 53.6261 25.7879C53.7121 31.6652 57.9458 38.0634 64.8932 39.1875V39.1886Z" stroke="white" stroke-miterlimit="10"/>
<path d="M67.1882 27.8823C68.2252 27.8823 69.0659 27.0388 69.0659 25.9983C69.0659 24.9578 68.2252 24.1143 67.1882 24.1143C66.1512 24.1143 65.3105 24.9578 65.3105 25.9983C65.3105 27.0388 66.1512 27.8823 67.1882 27.8823Z" fill="white" stroke="white" stroke-miterlimit="10"/>
<path d="M67.1882 24.1143L64.6318 12.6313" stroke="white" stroke-miterlimit="10"/>
<path d="M63.5295 12.9915L66.0335 24.5145" stroke="white" stroke-miterlimit="10"/>
<path d="M67.738 24.1145L74.8344 15.0417" stroke="white" stroke-miterlimit="10"/>
<path d="M68.6548 24.8239L75.7428 16.1584" stroke="white" stroke-miterlimit="10"/>
<path d="M69.0659 25.2322H80.0446" stroke="white" stroke-miterlimit="10"/>
<path d="M69.0659 26.4614L80.0446 26.6761" stroke="white" stroke-miterlimit="10"/>
<path d="M68.6548 27.175L75.7428 35.7626" stroke="white" stroke-miterlimit="10"/>
<path d="M67.738 27.8835L74.8344 36.7647" stroke="white" stroke-miterlimit="10"/>
<path d="M67.1882 27.8835L64.6318 39.1424" stroke="white" stroke-miterlimit="10"/>
<path d="M66.0335 27.4824L63.5295 38.6234" stroke="white" stroke-miterlimit="10"/>
<path d="M65.3096 25.9983L54.7925 31.0841" stroke="white" stroke-miterlimit="10"/>
<path d="M55.293 32.124L65.722 27.175" stroke="white" stroke-miterlimit="10"/>
<path d="M55.293 19.3674L65.722 24.5153" stroke="white" stroke-miterlimit="10"/>
<path d="M54.7925 20.7422L65.3096 25.6606" stroke="white" stroke-miterlimit="10"/>
<path d="M62.597 50.7031H40.8967" stroke="white" stroke-width="0.5" stroke-miterlimit="10"/>
<path d="M38.8102 38.9792H17.1099" stroke="white" stroke-width="0.5" stroke-miterlimit="10"/>
<path d="M38.8102 19.2991H17.1099" stroke="white" stroke-width="0.5" stroke-miterlimit="10"/>
<path d="M44.6532 8.83081H22.9529" stroke="white" stroke-width="0.5" stroke-miterlimit="10"/>
<path d="M45.9047 46.0974H24.2043" stroke="white" stroke-width="0.5" stroke-miterlimit="10"/>
<path d="M32.9685 29.3486H0" stroke="white" stroke-width="0.5" stroke-miterlimit="10"/>
<path d="M105.2 18H113.2C114.507 18 115.467 18.3 116.08 18.9C116.693 19.4867 117 20.3867 117 21.6C117 22.4 116.827 23.0533 116.48 23.56C116.133 24.0533 115.707 24.4 115.2 24.6C116.28 24.8933 117.013 25.6133 117.4 26.76C117.533 27.1733 117.6 27.6533 117.6 28.2C117.6 29.5067 117.293 30.4667 116.68 31.08C116.067 31.6933 115.107 32 113.8 32H105.2V18ZM114 27.6C114 26.8 113.6 26.4 112.8 26.4H108.8V29.2H112.8C113.6 29.2 114 28.8 114 28V27.6ZM113.4 22C113.4 21.2 113 20.8 112.2 20.8H108.8V23.6H112.2C113 23.6 113.4 23.2 113.4 22.4V22ZM128.399 18H131.999V28.2C131.999 29.6 131.679 30.62 131.039 31.26C130.413 31.8867 129.399 32.2 127.999 32.2H123.399C121.999 32.2 120.979 31.8867 120.339 31.26C119.713 30.62 119.399 29.6 119.399 28.2V18H122.999V28.2C122.999 29 123.399 29.4 124.199 29.4H127.199C127.999 29.4 128.399 29 128.399 28.2V18ZM134.399 18H142.799C144.199 18 145.213 18.32 145.839 18.96C146.479 19.5867 146.799 20.6 146.799 22V23.8C146.799 24.9067 146.613 25.7667 146.239 26.38C145.879 26.9933 145.299 27.4 144.499 27.6L146.999 32H143.099L140.799 27.8H137.999V32H134.399V18ZM143.199 22C143.199 21.2 142.799 20.8 141.999 20.8H137.999V25H141.999C142.799 25 143.199 24.6 143.199 23.8V22ZM160.994 32H157.194L152.394 23.6V32H148.794V18H152.594L157.394 26.4V18H160.994V32ZM172.403 21.8C172.403 21 172.003 20.6 171.203 20.6H167.803C167.003 20.6 166.603 21 166.603 21.8V28.2C166.603 29 167.003 29.4 167.803 29.4H171.203C172.003 29.4 172.403 29 172.403 28.2V21.8ZM176.003 28.2C176.003 29.6 175.683 30.62 175.043 31.26C174.416 31.8867 173.403 32.2 172.003 32.2H167.003C165.603 32.2 164.583 31.8867 163.943 31.26C163.316 30.62 163.003 29.6 163.003 28.2V21.8C163.003 20.4 163.316 19.3867 163.943 18.76C164.583 18.12 165.603 17.8 167.003 17.8H172.003C173.403 17.8 174.416 18.12 175.043 18.76C175.683 19.3867 176.003 20.4 176.003 21.8V28.2ZM187.013 18H190.613V28.2C190.613 29.6 190.293 30.62 189.653 31.26C189.026 31.8867 188.013 32.2 186.613 32.2H182.013C180.613 32.2 179.593 31.8867 178.953 31.26C178.326 30.62 178.013 29.6 178.013 28.2V18H181.613V28.2C181.613 29 182.013 29.4 182.813 29.4H185.813C186.613 29.4 187.013 29 187.013 28.2V18ZM199.813 32H196.213V20.8H192.013V18H204.013V20.8H199.813V32Z" fill="white"/>
<path d="M211.411 18H219.811C221.211 18 222.224 18.32 222.851 18.96C223.491 19.5867 223.811 20.6 223.811 22V24C223.811 25.4 223.491 26.42 222.851 27.06C222.224 27.6867 221.211 28 219.811 28H215.011V32H211.411V18ZM220.211 22C220.211 21.2 219.811 20.8 219.011 20.8H215.011V25.2H219.011C219.811 25.2 220.211 24.8 220.211 24V22ZM225.61 18H234.01C235.41 18 236.423 18.32 237.05 18.96C237.69 19.5867 238.01 20.6 238.01 22V23.8C238.01 24.9067 237.823 25.7667 237.45 26.38C237.09 26.9933 236.51 27.4 235.71 27.6L238.21 32H234.31L232.01 27.8H229.21V32H225.61V18ZM234.41 22C234.41 21.2 234.01 20.8 233.21 20.8H229.21V25H233.21C234.01 25 234.41 24.6 234.41 23.8V22ZM249.005 21.8C249.005 21 248.605 20.6 247.805 20.6H244.405C243.605 20.6 243.205 21 243.205 21.8V28.2C243.205 29 243.605 29.4 244.405 29.4H247.805C248.605 29.4 249.005 29 249.005 28.2V21.8ZM252.605 28.2C252.605 29.6 252.285 30.62 251.645 31.26C251.018 31.8867 250.005 32.2 248.605 32.2H243.605C242.205 32.2 241.185 31.8867 240.545 31.26C239.918 30.62 239.605 29.6 239.605 28.2V21.8C239.605 20.4 239.918 19.3867 240.545 18.76C241.185 18.12 242.205 17.8 243.605 17.8H248.605C250.005 17.8 251.018 18.12 251.645 18.76C252.285 19.3867 252.605 20.4 252.605 21.8V28.2ZM266.614 31.7C263.494 32.0333 260.627 32.2 258.014 32.2C256.707 32.2 255.747 31.8933 255.134 31.28C254.521 30.6667 254.214 29.7067 254.214 28.4V22C254.214 20.6 254.527 19.5867 255.154 18.96C255.794 18.32 256.814 18 258.214 18H265.414V20.8H259.014C258.214 20.8 257.814 21.2 257.814 22V28.4C257.814 28.7067 257.901 28.9533 258.074 29.14C258.261 29.3133 258.507 29.4 258.814 29.4C260.347 29.4 261.747 29.3667 263.014 29.3V26.4H260.414V24H266.614V31.7ZM268.618 18H277.018C278.418 18 279.431 18.32 280.058 18.96C280.698 19.5867 281.018 20.6 281.018 22V23.8C281.018 24.9067 280.831 25.7667 280.458 26.38C280.098 26.9933 279.518 27.4 278.718 27.6L281.218 32H277.318L275.018 27.8H272.218V32H268.618V18ZM277.418 22C277.418 21.2 277.018 20.8 276.218 20.8H272.218V25H276.218C277.018 25 277.418 24.6 277.418 23.8V22ZM294.113 32H283.013V18H294.113V20.8H286.613V23.5H292.513V26.3H286.613V29.2H294.113V32ZM295.288 29.1C298.941 29.3 301.414 29.4 302.708 29.4C303.014 29.4 303.254 29.3133 303.428 29.14C303.614 28.9533 303.708 28.7067 303.708 28.4V26.6H299.108C297.708 26.6 296.688 26.2867 296.048 25.66C295.421 25.02 295.108 24 295.108 22.6V22C295.108 20.6 295.421 19.5867 296.048 18.96C296.688 18.32 297.708 18 299.108 18H306.128V20.8H299.908C299.108 20.8 298.708 21.2 298.708 22V22.4C298.708 23.2 299.108 23.6 299.908 23.6H303.508C304.814 23.6 305.774 23.9067 306.388 24.52C307.001 25.1333 307.308 26.0933 307.308 27.4V28.4C307.308 29.7067 307.001 30.6667 306.388 31.28C305.774 31.8933 304.814 32.2 303.508 32.2C302.828 32.2 302.108 32.1867 301.348 32.16L299.508 32.08C298.148 32.0133 296.741 31.92 295.288 31.8V29.1ZM308.686 29.1C312.34 29.3 314.813 29.4 316.106 29.4C316.413 29.4 316.653 29.3133 316.826 29.14C317.013 28.9533 317.106 28.7067 317.106 28.4V26.6H312.506C311.106 26.6 310.086 26.2867 309.446 25.66C308.82 25.02 308.506 24 308.506 22.6V22C308.506 20.6 308.82 19.5867 309.446 18.96C310.086 18.32 311.106 18 312.506 18H319.526V20.8H313.306C312.506 20.8 312.106 21.2 312.106 22V22.4C312.106 23.2 312.506 23.6 313.306 23.6H316.906C318.213 23.6 319.173 23.9067 319.786 24.52C320.4 25.1333 320.706 26.0933 320.706 27.4V28.4C320.706 29.7067 320.4 30.6667 319.786 31.28C319.173 31.8933 318.213 32.2 316.906 32.2C316.226 32.2 315.506 32.1867 314.746 32.16L312.906 32.08C311.546 32.0133 310.14 31.92 308.686 31.8V29.1Z" fill="#971717"/>
</svg>
