<?xml version="1.0" encoding="UTF-8"?>
<svg id="Icons" xmlns="http://www.w3.org/2000/svg" viewBox="0 0 24 24">
  <defs>
    <style>
      .cls-1 {
        fill: #971717;
        stroke-width: 0px;
      }
    </style>
  </defs>
  <path class="cls-1" d="m12,0C5.37,0,0,5.37,0,12s5.37,12,12,12,12-5.37,12-12C23.99,5.38,18.62,0,12,0Zm0,22c-5.52,0-10-4.48-10-10S6.48,2,12,2s10,4.48,10,10c0,5.52-4.48,9.99-10,10Z"/>
  <path class="cls-1" d="m13,11.59v-5.59c0-.55-.45-1-1-1s-1,.45-1,1v6c0,.27.11.52.29.71l3,3c.4.38,1.03.37,1.41-.02.37-.39.37-1,0-1.39l-2.71-2.71Z"/>
</svg>